<svg xmlns="http://www.w3.org/2000/svg" width="24" height="14" viewBox="0 0 24 14">
  <metadata><?xpacket begin="﻿" id="W5M0MpCehiHzreSzNTczkc9d"?>
<x:xmpmeta xmlns:x="adobe:ns:meta/" x:xmptk="Adobe XMP Core 5.6-c140 79.160451, 2017/05/06-01:08:21        ">
   <rdf:RDF xmlns:rdf="http://www.w3.org/1999/02/22-rdf-syntax-ns#">
      <rdf:Description rdf:about=""/>
   </rdf:RDF>
</x:xmpmeta>

<svg xmlns="http://www.w3.org/2000/svg" width="24" height="14" viewBox="0 0 24 14">
  <path id="_9" data-name="9" class="cls-1" d="M1220.69,976.717a1,1,0,0,1-1.42,0l-10.29-11.257-10.28,11.257a1,1,0,0,1-1.42,0,1.012,1.012,0,0,1,0-1.423l10.94-11.98a0.994,0.994,0,0,1,.76-0.285,0.968,0.968,0,0,1,.76.285l10.95,11.98A1.012,1.012,0,0,1,1220.69,976.717Z" transform="translate(-1197 -963.031)"/>
</svg>
                                                                                                    
                                                                                                    
                                                                                                    
                                                                                                    
                                                                                                    
                                                                                                    
                                                                                                    
                                                                                                    
                                                                                                    
                                                                                                    
                                                                                                    
                                                                                                    
                                                                                                    
                                                                                                    
                                                                                                    
                                                                                                    
                                                                                                    
                                                                                                    
                                                                                                    
                                                                                                    
                           
<?xpacket end="w"?></metadata>
<defs>
    <style>
      .cls-1 {
        fill: #ba3ba6;
        fill-rule: evenodd;
      }
    </style>
  </defs>
  <path id="_9" data-name="9" class="cls-1" d="M1220.69,976.717a1,1,0,0,1-1.42,0l-10.29-11.257-10.28,11.257a1,1,0,0,1-1.42,0,1.012,1.012,0,0,1,0-1.423l10.94-11.98a0.994,0.994,0,0,1,.76-0.285,0.968,0.968,0,0,1,.76.285l10.95,11.98A1.012,1.012,0,0,1,1220.69,976.717Z" transform="translate(-1197 -963.031)"/>
</svg>
