<svg xmlns="http://www.w3.org/2000/svg" width="17.875" height="8.843" viewBox="0 0 17.875 8.843">
  <metadata><?xpacket begin="﻿" id="W5M0MpCehiHzreSzNTczkc9d"?>
<x:xmpmeta xmlns:x="adobe:ns:meta/" x:xmptk="Adobe XMP Core 5.6-c140 79.160451, 2017/05/06-01:08:21        ">
   <rdf:RDF xmlns:rdf="http://www.w3.org/1999/02/22-rdf-syntax-ns#">
      <rdf:Description rdf:about=""/>
   </rdf:RDF>
</x:xmpmeta>
                                                                                                    
                                                                                                    
                                                                                                    
                                                                                                    
                                                                                                    
                                                                                                    
                                                                                                    
                                                                                                    
                                                                                                    
                                                                                                    
                                                                                                    
                                                                                                    
                                                                                                    
                                                                                                    
                                                                                                    
                                                                                                    
                                                                                                    
                                                                                                    
                                                                                                    
                                                                                                    
                           
<?xpacket end="w"?></metadata>
<defs>
    <style>
      .cls-1 {
        fill: #3a1a38;
        fill-rule: evenodd;
      }
    </style>
  </defs>
  <path id="Фигура_5" data-name="Фигура 5" class="cls-1" d="M242.223,117.1H227.608l2.321,2.418a0.776,0.776,0,0,1-.014,1.084,0.745,0.745,0,0,1-1.067-.014l-3.57-3.719c-0.006-.007-0.007-0.015-0.013-0.022a0.746,0.746,0,0,1-.143-0.22s0,0,0-.006a0.775,0.775,0,0,1-.038-0.391c0-.031.011-0.058,0.019-0.089a0.751,0.751,0,0,1,.177-0.338s0-.008.006-0.011l0.006-.006a0,0,0,0,1,0,0,0,0,0,0,1,0,0l3.562-3.621a0.745,0.745,0,0,1,1.067,0,0.776,0.776,0,0,1,0,1.084l-2.283,2.32h14.584A0.767,0.767,0,0,1,242.223,117.1Z" transform="translate(-225.094 -111.969)"/>
</svg>
