<svg xmlns="http://www.w3.org/2000/svg" width="22" height="15.97" viewBox="0 0 22 15.97">
  <metadata><?xpacket begin="﻿" id="W5M0MpCehiHzreSzNTczkc9d"?>
<x:xmpmeta xmlns:x="adobe:ns:meta/" x:xmptk="Adobe XMP Core 5.6-c140 79.160451, 2017/05/06-01:08:21        ">
   <rdf:RDF xmlns:rdf="http://www.w3.org/1999/02/22-rdf-syntax-ns#">
      <rdf:Description rdf:about=""/>
   </rdf:RDF>
</x:xmpmeta>
                                                                                                    
                                                                                                    
                                                                                                    
                                                                                                    
                                                                                                    
                                                                                                    
                                                                                                    
                                                                                                    
                                                                                                    
                                                                                                    
                                                                                                    
                                                                                                    
                                                                                                    
                                                                                                    
                                                                                                    
                                                                                                    
                                                                                                    
                                                                                                    
                                                                                                    
                                                                                                    
                           
<?xpacket end="w"?></metadata>
<defs>
    <style>
      .cls-1 {
        fill: #958494;
        fill-rule: evenodd;
      }
    </style>
  </defs>
  <path id="Фигура_8" data-name="Фигура 8" class="cls-1" d="M535.722,1670.06c-0.145.31-3.646,7.66-10.921,7.66s-10.776-7.35-10.921-7.66a0.784,0.784,0,0,1-.008-0.64c0.136-.31,3.415-7.67,10.929-7.67s10.793,7.36,10.93,7.67A0.784,0.784,0,0,1,535.722,1670.06Zm-10.921-6.79c-5.712,0-8.731,5.11-9.427,6.45,0.733,1.35,3.892,6.48,9.427,6.48,5.552,0,8.7-5.13,9.428-6.48C533.534,1668.38,530.515,1663.27,524.8,1663.27Zm0,10.1a3.642,3.642,0,1,1,3.529-3.64A3.588,3.588,0,0,1,524.8,1673.37Zm0-5.76a2.121,2.121,0,1,0,2.055,2.12A2.09,2.09,0,0,0,524.8,1667.61Z" transform="translate(-513.812 -1661.75)"/>
</svg>
