<?xml version="1.0" encoding="utf-8"?>
<!-- Generator: Adobe Illustrator 22.1.0, SVG Export Plug-In . SVG Version: 6.00 Build 0)  -->
<svg version="1.1" id="Слой_1" xmlns="http://www.w3.org/2000/svg" xmlns:xlink="http://www.w3.org/1999/xlink" x="0px" y="0px"
	 viewBox="0 0 140.3 27.6" style="enable-background:new 0 0 140.3 27.6;" xml:space="preserve">
<style type="text/css">
	.st0{fill:#3DACFF;}
	.st1{fill:#D727B3;}
	.st2{fill:none;stroke:#D727B3;stroke-width:3;stroke-linecap:round;stroke-linejoin:round;stroke-miterlimit:10;}
	.st3{fill:none;stroke:#3DACFF;stroke-width:1.5;stroke-linecap:round;stroke-linejoin:round;stroke-miterlimit:10;}
</style>
<path class="st0" d="M44.4,13.5L44.4,13.5c0,1-0.7,1.6-1.7,1.6h-4.6c0.3,0.7,1,1.1,2.1,1.1c0.5,0,1.2-0.1,1.7-0.3
	c0.2-0.1,0.4-0.2,0.6-0.2c0.7,0,1.3,0.6,1.3,1.3c0,0.5-0.2,0.9-0.8,1.3c-0.8,0.5-1.8,0.7-2.8,0.7c-3.1,0-5.3-2.1-5.3-5
	c0-2.8,2.1-5,5-5C42.4,9,44.4,10.9,44.4,13.5z M38,13h3.3c0-0.8-0.7-1.4-1.6-1.4C38.9,11.6,38.3,12.1,38,13z"/>
<path class="st0" d="M52.6,10.5c0,0.9-0.6,1.5-1.5,1.6c-1.2,0.2-1.7,0.9-1.7,2.3v2.9c0,0.9-0.7,1.7-1.6,1.7c-0.9,0-1.6-0.7-1.6-1.7
	v-6.6c0-0.9,0.7-1.7,1.6-1.7c0.7,0,1.3,0.4,1.5,1.1c0.5-0.6,1.2-1,2-1C52,9.1,52.6,9.7,52.6,10.5z"/>
<path class="st0" d="M63.4,14c0,2.8-2.3,5-5.2,5c-2.9,0-5.2-2.2-5.2-5c0-2.8,2.3-5,5.2-5C61.2,9,63.4,11.2,63.4,14z M56.4,14
	c0,1.2,0.7,2,1.8,2c1.1,0,1.8-0.8,1.8-2c0-1.1-0.8-2-1.8-2C57.2,12,56.4,12.8,56.4,14z"/>
<path class="st0" d="M72,17.4c0,0.6-0.3,1-0.7,1.3c-0.4,0.2-0.8,0.3-1.4,0.3c-2.7,0-4.2-1.3-4.2-3.9V12h-0.3c-0.8,0-1.4-0.6-1.4-1.4
	c0-0.8,0.6-1.4,1.4-1.4h0.3V8.4c0-0.9,0.7-1.7,1.6-1.7c0.9,0,1.6,0.7,1.6,1.7v0.9h1.4c0.8,0,1.4,0.6,1.4,1.4c0,0.8-0.6,1.4-1.4,1.4
	h-1.4v2.8c0,0.9,0.4,1.3,1.5,1.3h0.1C71.4,16,72,16.6,72,17.4z"/>
<path class="st0" d="M81.9,13.2v4.1c0,0.9-0.7,1.6-1.6,1.6c-0.7,0-1.2-0.4-1.5-0.9c-0.7,0.6-1.6,0.9-2.7,0.9c-2,0-3.3-1.2-3.3-2.9
	c0-1.8,1.4-2.8,3.7-2.8h2V13c0-0.8-0.5-1.2-1.5-1.2c-0.5,0-1,0.2-1.5,0.5c-0.4,0.2-0.6,0.3-0.9,0.3c-0.8,0-1.4-0.6-1.4-1.3
	c0-0.5,0.2-0.9,0.7-1.3c0.8-0.6,2-1,3.4-1C80.4,9,81.9,10.5,81.9,13.2z M78.7,15.3L78.7,15.3l-1.5-0.1c-0.6,0-0.9,0.3-0.9,0.7
	c0,0.5,0.4,0.7,1,0.7C78.1,16.6,78.7,16.1,78.7,15.3z"/>
<path class="st0" d="M84,17.3V5.9c0-0.9,0.7-1.7,1.6-1.7c0.9,0,1.6,0.7,1.6,1.7v11.4c0,0.9-0.7,1.7-1.6,1.7C84.7,19,84,18.3,84,17.3
	z"/>
<path class="st0" d="M98.5,13.5L98.5,13.5c0,1-0.7,1.6-1.7,1.6h-4.6c0.3,0.7,1,1.1,2.1,1.1c0.5,0,1.2-0.1,1.7-0.3
	c0.2-0.1,0.4-0.2,0.6-0.2c0.7,0,1.3,0.6,1.3,1.3c0,0.5-0.2,0.9-0.8,1.3c-0.8,0.5-1.8,0.7-2.8,0.7c-3.1,0-5.3-2.1-5.3-5
	c0-2.8,2.1-5,5-5C96.5,9,98.5,10.9,98.5,13.5z M92.1,13h3.3c0-0.8-0.7-1.4-1.6-1.4C93,11.6,92.4,12.1,92.1,13z"/>
<path class="st0" d="M99.9,17.8c-0.3-0.3-0.5-0.6-0.5-1c0-0.7,0.6-1.3,1.3-1.3c0.3,0,0.5,0.1,0.9,0.3c0.5,0.3,1.2,0.6,1.8,0.6
	c0.5,0,0.8-0.1,0.8-0.4c0-0.2-0.2-0.3-0.6-0.5l-1.1-0.4c-1.7-0.7-2.8-1.5-2.8-3.1c0-1.9,1.5-3,3.7-3c1,0,2.2,0.3,3,0.8
	c0.4,0.3,0.6,0.7,0.6,1.1c0,0.7-0.6,1.3-1.3,1.3c-0.3,0-0.5-0.1-0.8-0.2c-0.5-0.3-1-0.5-1.5-0.5c-0.4,0-0.7,0.1-0.7,0.4
	c0,0.2,0.2,0.3,0.6,0.5l0.9,0.4c1.7,0.7,2.8,1.4,2.8,3c0,2-1.7,3.2-3.9,3.2C102,19,100.8,18.5,99.9,17.8z"/>
<path class="st1" d="M108.2,16.8c0-1.2,0.9-2.1,2.2-2.1c1.2,0,2.1,0.9,2.1,2.1c0,1.2-0.9,2.1-2.1,2.1C109.1,19,108.2,18,108.2,16.8z
	"/>
<path class="st1" d="M129.1,12.9v4.4c0,0.9-0.7,1.7-1.6,1.7c-0.9,0-1.6-0.7-1.6-1.7v-4c0-0.9-0.5-1.4-1.3-1.4
	c-0.8,0-1.3,0.6-1.3,1.4v4c0,0.9-0.7,1.7-1.6,1.7s-1.6-0.7-1.6-1.7v-4c0-0.9-0.5-1.4-1.3-1.4c-0.8,0-1.3,0.6-1.3,1.4v4
	c0,0.9-0.7,1.7-1.6,1.7c-0.9,0-1.6-0.7-1.6-1.7v-6.6c0-0.9,0.7-1.7,1.6-1.7c0.7,0,1.2,0.4,1.4,0.9c0.7-0.6,1.6-0.9,2.6-0.9
	c1.2,0,2.1,0.4,2.8,1.2c0.8-0.8,1.9-1.2,3.1-1.2C127.7,9,129.1,10.5,129.1,12.9z"/>
<path class="st1" d="M140.3,13.5L140.3,13.5c0,1-0.7,1.6-1.7,1.6H134c0.3,0.7,1,1.1,2.1,1.1c0.5,0,1.2-0.1,1.7-0.3
	c0.2-0.1,0.4-0.2,0.6-0.2c0.7,0,1.3,0.6,1.3,1.3c0,0.5-0.2,0.9-0.8,1.3C138,18.7,137,19,136,19c-3.1,0-5.3-2.1-5.3-5
	c0-2.8,2.1-5,5-5C138.3,9,140.3,10.9,140.3,13.5z M133.9,13h3.3c0-0.8-0.7-1.4-1.6-1.4C134.8,11.6,134.1,12.1,133.9,13z"/>
<path class="st2" d="M3.5,14C0.8,11.1,0.8,6.5,3.7,3.7S11.1,0.8,14,3.5l0,0l0,0c2.9-2.7,7.5-2.6,10.3,0.2c2.8,2.8,2.9,7.4,0.2,10.3
	l0,0L15.7,23l-3.2,3.1"/>
<line class="st3" x1="8.9" y1="8.9" x2="20.1" y2="8.9"/>
<line class="st3" x1="9" y1="12.4" x2="17.3" y2="12.4"/>
<line class="st3" x1="9" y1="15.9" x2="14.7" y2="15.9"/>
<line class="st3" x1="17.3" y1="15.9" x2="17.3" y2="15.9"/>
</svg>
