<svg xmlns="http://www.w3.org/2000/svg" width="18.969" height="19" viewBox="0 0 18.969 19">
  <metadata><?xpacket begin="﻿" id="W5M0MpCehiHzreSzNTczkc9d"?>
<x:xmpmeta xmlns:x="adobe:ns:meta/" x:xmptk="Adobe XMP Core 5.6-c140 79.160451, 2017/05/06-01:08:21        ">
   <rdf:RDF xmlns:rdf="http://www.w3.org/1999/02/22-rdf-syntax-ns#">
      <rdf:Description rdf:about=""/>
   </rdf:RDF>
</x:xmpmeta>
                                                                                                    
                                                                                                    
                                                                                                    
                                                                                                    
                                                                                                    
                                                                                                    
                                                                                                    
                                                                                                    
                                                                                                    
                                                                                                    
                                                                                                    
                                                                                                    
                                                                                                    
                                                                                                    
                                                                                                    
                                                                                                    
                                                                                                    
                                                                                                    
                                                                                                    
                                                                                                    
                           
<?xpacket end="w"?></metadata>
<defs>
    <style>
      .cls-1 {
        fill: #c53cae;
        fill-rule: evenodd;
      }
    </style>
  </defs>
  <path id="Фигура_7" data-name="Фигура 7" class="cls-1" d="M232.414,901A9.535,9.535,0,0,1,223,893.17a0.855,0.855,0,0,1,1.683-.3,7.824,7.824,0,1,0,2.879-7.522l1.6-.021h0.011a0.85,0.85,0,1,1,.011,1.7l-3.669.047H225.5a0.834,0.834,0,0,1-.4-0.113,0.77,0.77,0,0,1-.089-0.06,0.818,0.818,0,0,1-.232-0.251c-0.011-.018-0.032-0.026-0.041-0.044a0.17,0.17,0,0,1,0-.022,0.823,0.823,0,0,1-.087-0.359v-3.39a0.855,0.855,0,0,1,1.71,0v1.3A9.534,9.534,0,1,1,232.414,901Z" transform="translate(-223 -882)"/>
</svg>
