<?xml version="1.0" encoding="utf-8"?>
<!-- Generator: Adobe Illustrator 22.1.0, SVG Export Plug-In . SVG Version: 6.00 Build 0)  -->
<svg version="1.1" id="Capa_1" xmlns="http://www.w3.org/2000/svg" xmlns:xlink="http://www.w3.org/1999/xlink" x="0px" y="0px"
	 viewBox="0 0 16.4 9.4" style="enable-background:new 0 0 16.4 9.4;" xml:space="preserve">
<style type="text/css">
	.st0{fill:#517DB1;}
</style>
<g>
	<path class="st0" d="M16.3,8.4c0,0,0-0.1-0.1-0.1c-0.3-0.5-0.8-1.1-1.6-1.9l0,0l0,0l0,0h0c-0.4-0.3-0.6-0.6-0.7-0.7
		c-0.2-0.2-0.2-0.5-0.1-0.7c0.1-0.2,0.3-0.5,0.8-1.1c0.2-0.3,0.4-0.5,0.6-0.7c1-1.3,1.4-2.1,1.3-2.5l-0.1-0.1c0-0.1-0.1-0.1-0.3-0.1
		c-0.1,0-0.3,0-0.5,0l-2.5,0c0,0-0.1,0-0.2,0c-0.1,0-0.1,0-0.1,0l0,0l0,0c0,0-0.1,0-0.1,0.1c0,0-0.1,0.1-0.1,0.1
		c-0.3,0.7-0.6,1.3-0.9,1.9C11.4,3,11.2,3.3,11,3.6c-0.2,0.3-0.3,0.4-0.4,0.6c-0.1,0.1-0.2,0.2-0.3,0.3c-0.1,0.1-0.2,0.1-0.2,0.1
		c-0.1,0-0.1,0-0.1,0C9.8,4.5,9.7,4.4,9.7,4.3c0-0.1-0.1-0.2-0.1-0.3c0-0.1,0-0.2,0-0.3c0-0.1,0-0.2,0-0.4c0-0.2,0-0.3,0-0.4
		c0-0.2,0-0.5,0-0.7c0-0.3,0-0.5,0-0.6c0-0.1,0-0.3,0-0.5s0-0.3,0-0.4c0-0.1,0-0.2-0.1-0.3c0-0.1-0.1-0.2-0.2-0.2
		C9.2,0.2,9.2,0.1,9,0.1C8.7,0,8.4,0,7.9,0c-1.1,0-1.7,0.1-2,0.2C5.7,0.3,5.6,0.4,5.5,0.5c-0.1,0.1-0.1,0.2,0,0.2
		C5.8,0.7,6.1,0.8,6.2,1l0.1,0.1c0,0.1,0.1,0.2,0.1,0.4c0,0.2,0.1,0.4,0.1,0.6c0,0.4,0,0.8,0,1.1c0,0.3-0.1,0.5-0.1,0.7
		c0,0.2-0.1,0.3-0.1,0.4C6.2,4.4,6.2,4.5,6.2,4.5c0,0,0,0,0,0c-0.1,0-0.2,0-0.2,0c-0.1,0-0.2,0-0.3-0.1C5.5,4.4,5.4,4.3,5.2,4.1
		C5.1,4,5,3.8,4.8,3.6C4.7,3.3,4.5,3,4.3,2.7L4.2,2.4C4.1,2.3,4,2,3.9,1.7C3.7,1.4,3.6,1.1,3.5,0.8c0-0.1-0.1-0.2-0.2-0.3l0,0
		c0,0-0.1,0-0.1-0.1C3,0.4,3,0.4,2.9,0.4l-2.3,0c-0.2,0-0.4,0.1-0.5,0.2l0,0.1c0,0,0,0.1,0,0.1C0,0.8,0,0.9,0.1,1
		c0.3,0.8,0.7,1.6,1.1,2.3s0.7,1.3,1,1.8C2.5,5.6,2.8,6,3.1,6.4c0.3,0.4,0.5,0.7,0.6,0.8C3.8,7.3,3.9,7.4,4,7.5l0.2,0.2
		C4.3,7.8,4.5,8,4.8,8.1C5,8.3,5.3,8.5,5.7,8.7C6,8.9,6.3,9,6.8,9.2C7.2,9.3,7.6,9.3,8,9.3h1c0.2,0,0.3-0.1,0.5-0.2l0,0
		c0,0,0-0.1,0.1-0.2c0-0.1,0-0.1,0-0.2c0-0.2,0-0.5,0.1-0.7c0-0.2,0.1-0.3,0.1-0.4C9.8,7.5,9.9,7.4,10,7.3c0.1-0.1,0.1-0.1,0.1-0.1
		c0,0,0.1,0,0.1,0c0.1,0,0.3,0,0.5,0.1c0.2,0.1,0.4,0.3,0.5,0.5c0.2,0.2,0.4,0.4,0.6,0.7C12,8.7,12.2,8.9,12.4,9l0.2,0.1
		c0.1,0.1,0.3,0.1,0.4,0.2c0.2,0.1,0.3,0.1,0.5,0l2.2,0c0.2,0,0.4,0,0.5-0.1C16.3,9.1,16.3,9,16.4,9c0-0.1,0-0.2,0-0.3
		C16.3,8.6,16.3,8.5,16.3,8.4z"/>
</g>
</svg>
